<?xml version="1.0" encoding="UTF-8" standalone="no"?>
<!-- Created with Inkscape (http://www.inkscape.org/) -->

<svg
   xmlns:dc="http://purl.org/dc/elements/1.1/"
   xmlns:cc="http://creativecommons.org/ns#"
   xmlns:rdf="http://www.w3.org/1999/02/22-rdf-syntax-ns#"
   xmlns:svg="http://www.w3.org/2000/svg"
   xmlns="http://www.w3.org/2000/svg"
   xmlns:sodipodi="http://sodipodi.sourceforge.net/DTD/sodipodi-0.dtd"
   xmlns:inkscape="http://www.inkscape.org/namespaces/inkscape"
   width="210mm"
   height="297mm"
   viewBox="0 0 744.09448819 1052.3622047"
   id="svg2"
   version="1.1"
   inkscape:version="0.91 r13725"
   sodipodi:docname="Menu-Settings.svg">
  <defs
     id="defs4" />
  <sodipodi:namedview
     id="base"
     pagecolor="#000000"
     bordercolor="#666666"
     borderopacity="1.0"
     inkscape:pageopacity="0"
     inkscape:pageshadow="2"
     inkscape:zoom="0.98994949"
     inkscape:cx="293.76717"
     inkscape:cy="577.72942"
     inkscape:document-units="px"
     inkscape:current-layer="layer1"
     showgrid="false"
     inkscape:window-width="1920"
     inkscape:window-height="1017"
     inkscape:window-x="-8"
     inkscape:window-y="-8"
     inkscape:window-maximized="1" />
  <metadata
     id="metadata7">
    <rdf:RDF>
      <cc:Work
         rdf:about="">
        <dc:format>image/svg+xml</dc:format>
        <dc:type
           rdf:resource="http://purl.org/dc/dcmitype/StillImage" />
      </cc:Work>
    </rdf:RDF>
  </metadata>
  <g
     inkscape:label="Ebene 1"
     inkscape:groupmode="layer"
     id="layer1">
    <path
       style="fill:#ff0000;fill-rule:evenodd;stroke:#000000;stroke-width:1.53074288px;stroke-linecap:butt;stroke-linejoin:miter;stroke-opacity:1"
       d="M 382.49966,204.91979 A 183.23463,183.23463 0 0 0 199.26527,388.15418 183.23463,183.23463 0 0 0 382.49966,571.38855 183.23463,183.23463 0 0 0 565.73403,388.15418 183.23463,183.23463 0 0 0 382.49966,204.91979 Z m 0,55.77736 A 127.45847,127.45847 0 0 1 509.95864,388.15418 127.45847,127.45847 0 0 1 382.49966,515.61316 127.45847,127.45847 0 0 1 255.04067,388.15418 127.45847,127.45847 0 0 1 382.49966,260.69715 Z m 0,63.84179 a 63.616264,63.616264 0 0 0 -63.61524,63.61524 63.616264,63.616264 0 0 0 63.61524,63.61719 63.616264,63.616264 0 0 0 63.61718,-63.61719 63.616264,63.616264 0 0 0 -63.61718,-63.61524 z"
       id="path3346"
       inkscape:connector-curvature="0" />
    <path
       style="fill:#0000ff;fill-rule:evenodd;stroke:none;stroke-width:1.23267746px;stroke-linecap:butt;stroke-linejoin:miter;stroke-opacity:1"
       d="m 352.6538,104.58893 -28.86955,129.86618 56.46683,0 0,-129.86618 -27.59728,0 z m 29.06191,0 0,129.86618 56.46957,0 -28.8723,-129.86618 -27.59727,0 z m -57.93146,437.26456 28.86955,129.86618 27.59728,0 0,-129.86618 -56.46683,0 z m 57.93146,0 0,129.86618 27.59727,0 28.8723,-129.86618 -56.46957,0 z"
       id="rect3361"
       inkscape:connector-curvature="0" />
  </g>
</svg>
